<svg id="svg" version="1.1" xmlns="http://www.w3.org/2000/svg" xmlns:xlink="http://www.w3.org/1999/xlink" width="400" height="400" viewBox="0, 0, 400,400"><g id="svgg"><path id="path0" d="M135.200 86.000 C 135.200 86.744,134.933 86.800,131.363 86.800 C 127.862 86.800,127.507 86.870,127.316 87.600 C 127.131 88.309,126.770 88.400,124.153 88.400 C 121.467 88.400,121.200 88.472,121.200 89.200 C 121.200 89.905,120.933 90.000,118.963 90.000 C 117.062 90.000,116.694 90.120,116.516 90.800 C 116.352 91.427,115.970 91.600,114.753 91.600 C 113.639 91.600,113.200 91.770,113.200 92.200 C 113.200 92.622,112.774 92.800,111.763 92.800 C 110.662 92.800,110.276 92.987,110.116 93.600 C 109.959 94.201,109.570 94.400,108.553 94.400 C 107.467 94.400,107.200 94.558,107.200 95.200 C 107.200 95.867,106.933 96.000,105.600 96.000 C 104.267 96.000,104.000 96.133,104.000 96.800 C 104.000 97.452,103.733 97.600,102.563 97.600 C 101.462 97.600,101.076 97.787,100.916 98.400 C 100.800 98.843,100.370 99.200,99.953 99.200 C 99.467 99.200,99.200 99.483,99.200 100.000 C 99.200 100.652,98.933 100.800,97.763 100.800 C 96.662 100.800,96.276 100.987,96.116 101.600 C 96.000 102.043,95.570 102.400,95.153 102.400 C 94.667 102.400,94.400 102.683,94.400 103.200 C 94.400 103.665,94.133 104.000,93.763 104.000 C 93.412 104.000,93.031 104.360,92.916 104.800 C 92.801 105.240,92.458 105.600,92.153 105.600 C 91.849 105.600,91.600 105.960,91.600 106.400 C 91.600 107.067,91.333 107.200,90.000 107.200 C 88.667 107.200,88.400 107.333,88.400 108.000 C 88.400 108.533,88.133 108.800,87.600 108.800 C 86.952 108.800,86.800 109.067,86.800 110.200 C 86.800 111.333,86.648 111.600,86.000 111.600 C 85.467 111.600,85.200 111.867,85.200 112.400 C 85.200 112.933,84.933 113.200,84.400 113.200 C 83.867 113.200,83.600 113.467,83.600 114.000 C 83.600 114.533,83.333 114.800,82.800 114.800 C 82.267 114.800,82.000 115.067,82.000 115.600 C 82.000 116.133,81.733 116.400,81.200 116.400 C 80.667 116.400,80.400 116.667,80.400 117.200 C 80.400 117.640,80.149 118.000,79.843 118.000 C 79.198 118.000,78.800 118.852,78.800 120.233 C 78.800 120.933,78.579 121.200,78.000 121.200 C 77.467 121.200,77.200 121.467,77.200 122.000 C 77.200 122.440,76.946 122.800,76.635 122.800 C 76.288 122.800,75.966 123.416,75.800 124.400 C 75.634 125.384,75.312 126.000,74.965 126.000 C 74.586 126.000,74.400 126.461,74.400 127.400 C 74.400 128.533,74.248 128.800,73.600 128.800 C 72.933 128.800,72.800 129.067,72.800 130.400 C 72.800 131.733,72.667 132.000,72.000 132.000 C 71.333 132.000,71.200 132.267,71.200 133.600 C 71.200 134.933,71.067 135.200,70.400 135.200 C 69.737 135.200,69.600 135.467,69.600 136.753 C 69.600 137.970,69.427 138.352,68.800 138.516 C 68.130 138.691,68.000 139.062,68.000 140.800 C 68.000 142.538,67.870 142.909,67.200 143.084 C 66.528 143.260,66.400 143.630,66.400 145.400 C 66.400 147.170,66.272 147.540,65.600 147.716 C 64.890 147.902,64.800 148.262,64.800 150.916 C 64.800 153.570,64.710 153.930,64.000 154.116 C 63.276 154.305,63.200 154.662,63.200 157.874 C 63.200 160.927,63.088 161.518,62.400 162.107 C 61.679 162.724,61.600 163.287,61.600 167.796 L 61.600 172.800 58.600 172.800 C 55.867 172.800,55.600 172.871,55.600 173.600 C 55.600 174.329,55.333 174.400,52.587 174.400 C 50.279 174.400,49.521 174.540,49.345 175.000 C 49.218 175.330,48.698 175.600,48.190 175.600 C 46.850 175.600,46.000 176.005,46.000 176.643 C 46.000 177.046,45.437 177.200,43.963 177.200 C 42.262 177.200,41.891 177.332,41.716 178.000 C 41.557 178.606,41.170 178.800,40.116 178.800 C 39.062 178.800,38.675 178.994,38.516 179.600 C 38.357 180.206,37.970 180.400,36.916 180.400 C 35.862 180.400,35.475 180.594,35.316 181.200 C 35.200 181.643,34.770 182.000,34.353 182.000 C 33.867 182.000,33.600 182.283,33.600 182.800 C 33.600 183.467,33.333 183.600,32.000 183.600 C 30.667 183.600,30.400 183.733,30.400 184.400 C 30.400 184.933,30.133 185.200,29.600 185.200 C 29.067 185.200,28.800 185.467,28.800 186.000 C 28.800 186.648,28.533 186.800,27.400 186.800 C 26.267 186.800,26.000 186.952,26.000 187.600 C 26.000 188.133,25.733 188.400,25.200 188.400 C 24.667 188.400,24.400 188.667,24.400 189.200 C 24.400 189.733,24.133 190.000,23.600 190.000 C 23.067 190.000,22.800 190.267,22.800 190.800 C 22.800 191.333,22.533 191.600,22.000 191.600 C 21.467 191.600,21.200 191.867,21.200 192.400 C 21.200 192.917,20.933 193.200,20.447 193.200 C 20.030 193.200,19.600 193.557,19.484 194.000 C 19.369 194.440,18.988 194.800,18.637 194.800 C 18.176 194.800,18.000 195.186,18.000 196.200 C 18.000 197.333,17.848 197.600,17.200 197.600 C 16.683 197.600,16.400 197.867,16.400 198.353 C 16.400 198.770,16.043 199.200,15.600 199.316 C 14.987 199.476,14.800 199.862,14.800 200.963 C 14.800 202.133,14.652 202.400,14.000 202.400 C 13.467 202.400,13.200 202.667,13.200 203.200 C 13.200 203.640,12.949 204.000,12.643 204.000 C 11.998 204.000,11.600 204.852,11.600 206.233 C 11.600 206.787,11.365 207.200,11.050 207.200 C 10.502 207.200,10.000 208.848,10.000 210.650 C 10.000 211.188,9.762 211.600,9.452 211.600 C 9.078 211.600,8.817 212.366,8.632 214.000 C 8.439 215.705,8.192 216.400,7.780 216.400 C 7.322 216.400,7.200 217.071,7.200 219.600 C 7.200 222.533,7.133 222.800,6.400 222.800 C 5.640 222.800,5.600 223.067,5.600 228.200 C 5.600 233.333,5.560 233.600,4.800 233.600 C 4.023 233.600,4.000 233.867,4.000 242.837 C 4.000 251.738,4.029 252.083,4.800 252.284 C 5.550 252.480,5.600 252.830,5.600 257.847 C 5.600 262.933,5.640 263.200,6.400 263.200 C 7.133 263.200,7.200 263.467,7.200 266.400 C 7.200 268.848,7.329 269.600,7.750 269.600 C 8.300 269.600,8.800 271.249,8.800 273.063 C 8.800 273.592,9.070 274.129,9.400 274.255 C 9.770 274.397,10.000 275.005,10.000 275.843 C 10.000 276.933,10.157 277.200,10.800 277.200 C 11.479 277.200,11.600 277.467,11.600 278.967 C 11.600 281.114,11.904 282.000,12.643 282.000 C 12.949 282.000,13.200 282.360,13.200 282.800 C 13.200 283.333,13.467 283.600,14.000 283.600 C 14.652 283.600,14.800 283.867,14.800 285.037 C 14.800 286.138,14.987 286.524,15.600 286.684 C 16.043 286.800,16.400 287.230,16.400 287.647 C 16.400 288.133,16.683 288.400,17.200 288.400 C 17.848 288.400,18.000 288.667,18.000 289.800 C 18.000 290.933,18.152 291.200,18.800 291.200 C 19.333 291.200,19.600 291.467,19.600 292.000 C 19.600 292.533,19.867 292.800,20.400 292.800 C 20.933 292.800,21.200 293.067,21.200 293.600 C 21.200 294.133,21.467 294.400,22.000 294.400 C 22.533 294.400,22.800 294.667,22.800 295.200 C 22.800 295.733,23.067 296.000,23.600 296.000 C 24.133 296.000,24.400 296.267,24.400 296.800 C 24.400 297.265,24.667 297.600,25.037 297.600 C 25.388 297.600,25.769 297.960,25.884 298.400 C 26.000 298.843,26.430 299.200,26.847 299.200 C 27.333 299.200,27.600 299.483,27.600 300.000 C 27.600 300.648,27.867 300.800,29.000 300.800 C 30.133 300.800,30.400 300.952,30.400 301.600 C 30.400 302.117,30.667 302.400,31.153 302.400 C 31.570 302.400,32.000 302.757,32.116 303.200 C 32.276 303.813,32.662 304.000,33.763 304.000 C 34.933 304.000,35.200 304.148,35.200 304.800 C 35.200 305.333,35.467 305.600,36.000 305.600 C 36.440 305.600,36.800 305.854,36.800 306.165 C 36.800 306.512,37.416 306.834,38.400 307.000 C 39.384 307.166,40.000 307.488,40.000 307.835 C 40.000 308.253,40.572 308.400,42.200 308.400 C 44.133 308.400,44.400 308.497,44.400 309.200 C 44.400 309.863,44.667 310.000,45.953 310.000 C 47.170 310.000,47.552 310.173,47.716 310.800 C 47.902 311.511,48.262 311.600,50.963 311.600 C 53.733 311.600,54.000 311.670,54.000 312.400 C 54.000 313.199,54.267 313.200,200.000 313.200 C 345.733 313.200,346.000 313.199,346.000 312.400 C 346.000 311.689,346.267 311.600,348.400 311.600 C 350.533 311.600,350.800 311.511,350.800 310.800 C 350.800 310.098,351.067 310.000,352.973 310.000 C 354.795 310.000,355.187 309.871,355.400 309.200 C 355.589 308.605,356.005 308.400,357.027 308.400 C 357.924 308.400,358.400 308.210,358.400 307.851 C 358.400 307.520,359.035 307.201,360.000 307.046 C 361.035 306.881,361.600 306.580,361.600 306.195 C 361.600 305.867,361.958 305.600,362.400 305.600 C 362.933 305.600,363.200 305.333,363.200 304.800 C 363.200 304.133,363.467 304.000,364.800 304.000 C 366.133 304.000,366.400 303.867,366.400 303.200 C 366.400 302.667,366.667 302.400,367.200 302.400 C 367.733 302.400,368.000 302.133,368.000 301.600 C 368.000 300.955,368.267 300.800,369.373 300.800 C 370.369 300.800,370.812 300.592,370.986 300.043 C 371.118 299.627,371.581 299.194,372.013 299.081 C 372.446 298.967,372.800 298.609,372.800 298.284 C 372.800 297.959,373.160 297.599,373.600 297.484 C 374.040 297.369,374.400 296.988,374.400 296.637 C 374.400 296.287,374.670 296.000,375.000 296.000 C 375.333 296.000,375.600 295.644,375.600 295.200 C 375.600 294.667,375.867 294.400,376.400 294.400 C 376.933 294.400,377.200 294.133,377.200 293.600 C 377.200 293.067,377.467 292.800,378.000 292.800 C 378.440 292.800,378.800 292.551,378.800 292.247 C 378.800 291.942,379.160 291.599,379.600 291.484 C 380.040 291.369,380.400 291.000,380.400 290.664 C 380.400 290.329,380.760 289.940,381.200 289.800 C 381.640 289.660,382.000 289.300,382.000 289.000 C 382.000 288.700,382.360 288.340,382.800 288.200 C 383.395 288.011,383.600 287.595,383.600 286.573 C 383.600 285.467,383.755 285.200,384.400 285.200 C 384.933 285.200,385.200 284.933,385.200 284.400 C 385.200 283.960,385.451 283.600,385.757 283.600 C 386.402 283.600,386.800 282.748,386.800 281.367 C 386.800 280.667,387.021 280.400,387.600 280.400 C 388.267 280.400,388.400 280.133,388.400 278.800 C 388.400 277.467,388.533 277.200,389.200 277.200 C 389.842 277.200,390.000 276.933,390.000 275.847 C 390.000 274.830,390.199 274.441,390.800 274.284 C 391.407 274.125,391.600 273.738,391.600 272.680 C 391.600 271.810,391.825 271.199,392.200 271.055 C 392.633 270.889,392.800 270.210,392.800 268.613 C 392.800 266.667,392.896 266.400,393.600 266.400 C 394.333 266.400,394.400 266.133,394.400 263.200 C 394.400 260.267,394.467 260.000,395.200 260.000 C 396.457 260.000,396.457 232.445,395.200 232.116 C 394.472 231.925,394.400 231.570,394.400 228.153 C 394.400 224.667,394.343 224.400,393.600 224.400 C 392.889 224.400,392.800 224.133,392.800 222.000 C 392.800 220.133,392.667 219.600,392.200 219.600 C 391.738 219.600,391.600 219.085,391.600 217.363 C 391.600 215.462,391.480 215.094,390.800 214.916 C 390.216 214.763,389.999 214.368,389.995 213.453 C 389.986 211.597,389.578 210.400,388.953 210.400 C 388.635 210.400,388.400 209.990,388.400 209.433 C 388.400 208.052,388.002 207.200,387.357 207.200 C 386.984 207.200,386.800 206.725,386.800 205.763 C 386.800 204.662,386.613 204.276,386.000 204.116 C 385.557 204.000,385.200 203.570,385.200 203.153 C 385.200 202.667,384.917 202.400,384.400 202.400 C 383.748 202.400,383.600 202.133,383.600 200.963 C 383.600 199.862,383.413 199.476,382.800 199.316 C 382.357 199.200,382.000 198.770,382.000 198.353 C 382.000 197.867,381.717 197.600,381.200 197.600 C 380.667 197.600,380.400 197.333,380.400 196.800 C 380.400 196.267,380.133 196.000,379.600 196.000 C 378.952 196.000,378.800 195.733,378.800 194.600 C 378.800 193.467,378.648 193.200,378.000 193.200 C 377.467 193.200,377.200 192.933,377.200 192.400 C 377.200 191.867,376.933 191.600,376.400 191.600 C 375.867 191.600,375.600 191.333,375.600 190.800 C 375.600 190.267,375.333 190.000,374.800 190.000 C 374.267 190.000,374.000 189.733,374.000 189.200 C 374.000 188.552,373.733 188.400,372.600 188.400 C 371.467 188.400,371.200 188.248,371.200 187.600 C 371.200 187.067,370.933 186.800,370.400 186.800 C 369.867 186.800,369.600 186.533,369.600 186.000 C 369.600 185.467,369.333 185.200,368.800 185.200 C 368.267 185.200,368.000 184.933,368.000 184.400 C 368.000 183.883,367.733 183.600,367.247 183.600 C 366.830 183.600,366.400 183.243,366.284 182.800 C 366.124 182.187,365.738 182.000,364.637 182.000 C 363.467 182.000,363.200 181.852,363.200 181.200 C 363.200 180.533,362.933 180.400,361.600 180.400 C 360.267 180.400,360.000 180.267,360.000 179.600 C 360.000 178.958,359.733 178.800,358.647 178.800 C 357.630 178.800,357.241 178.601,357.084 178.000 C 356.924 177.387,356.538 177.200,355.437 177.200 C 354.431 177.200,354.000 177.021,354.000 176.605 C 354.000 176.221,353.440 175.920,352.425 175.758 C 351.558 175.619,350.754 175.257,350.637 174.953 C 350.483 174.550,349.607 174.400,347.413 174.400 C 344.667 174.400,344.400 174.329,344.400 173.600 C 344.400 172.872,344.133 172.800,341.447 172.800 C 338.830 172.800,338.469 172.709,338.284 172.000 C 338.106 171.320,337.738 171.200,335.837 171.200 L 333.600 171.200 333.600 161.000 C 333.600 151.067,333.579 150.800,332.800 150.800 C 332.056 150.800,332.000 150.533,332.000 146.963 C 332.000 143.462,331.930 143.107,331.200 142.916 C 330.496 142.732,330.400 142.370,330.400 139.916 C 330.400 137.462,330.304 137.100,329.600 136.916 C 328.973 136.752,328.800 136.370,328.800 135.153 C 328.800 133.867,328.663 133.600,328.000 133.600 C 327.333 133.600,327.200 133.333,327.200 132.000 C 327.200 130.667,327.067 130.400,326.400 130.400 C 325.751 130.400,325.600 130.133,325.600 128.987 C 325.600 128.101,325.377 127.489,325.000 127.345 C 324.670 127.218,324.400 126.876,324.400 126.584 C 324.400 126.293,324.040 125.940,323.600 125.800 C 323.032 125.620,322.800 125.195,322.800 124.336 C 322.800 123.462,322.578 123.067,322.000 122.916 C 321.557 122.800,321.200 122.370,321.200 121.953 C 321.200 121.467,320.917 121.200,320.400 121.200 C 319.867 121.200,319.600 120.933,319.600 120.400 C 319.600 119.867,319.333 119.600,318.800 119.600 C 318.267 119.600,318.000 119.333,318.000 118.800 C 318.000 118.267,317.733 118.000,317.200 118.000 C 316.667 118.000,316.400 117.733,316.400 117.200 C 316.400 116.667,316.133 116.400,315.600 116.400 C 315.067 116.400,314.800 116.133,314.800 115.600 C 314.800 115.067,314.533 114.800,314.000 114.800 C 313.467 114.800,313.200 114.533,313.200 114.000 C 313.200 113.467,312.933 113.200,312.400 113.200 C 311.960 113.200,311.600 112.949,311.600 112.643 C 311.600 111.998,310.748 111.600,309.367 111.600 C 308.667 111.600,308.400 111.379,308.400 110.800 C 308.400 110.360,308.149 110.000,307.843 110.000 C 307.536 110.000,307.182 109.730,307.055 109.400 C 306.919 109.044,306.317 108.800,305.575 108.800 C 304.662 108.800,304.269 108.585,304.116 108.000 C 303.952 107.373,303.570 107.200,302.353 107.200 C 301.067 107.200,300.800 107.063,300.800 106.400 C 300.800 105.733,300.533 105.600,299.200 105.600 C 297.867 105.600,297.600 105.467,297.600 104.800 C 297.600 104.133,297.333 104.000,296.000 104.000 C 294.667 104.000,294.400 103.867,294.400 103.200 C 294.400 102.499,294.133 102.400,292.247 102.400 C 290.430 102.400,290.061 102.275,289.884 101.600 C 289.706 100.920,289.338 100.800,287.437 100.800 C 285.467 100.800,285.200 100.705,285.200 100.000 C 285.200 99.268,284.933 99.200,282.047 99.200 C 279.230 99.200,278.871 99.115,278.684 98.400 C 278.481 97.622,278.138 97.600,266.237 97.600 C 254.267 97.600,254.000 97.617,254.000 98.400 C 254.000 99.133,253.733 99.200,250.800 99.200 C 247.867 99.200,247.600 99.267,247.600 100.000 C 247.600 100.705,247.333 100.800,245.363 100.800 C 243.462 100.800,243.094 100.920,242.916 101.600 C 242.739 102.275,242.370 102.400,240.553 102.400 C 238.667 102.400,238.400 102.499,238.400 103.200 C 238.400 103.867,238.133 104.000,236.800 104.000 C 235.467 104.000,235.200 104.133,235.200 104.800 C 235.200 105.467,234.933 105.600,233.600 105.600 C 232.267 105.600,232.000 105.733,232.000 106.400 C 232.000 107.045,231.733 107.200,230.627 107.200 C 229.605 107.200,229.189 107.405,229.000 108.000 C 228.860 108.440,228.398 108.800,227.973 108.800 C 227.548 108.800,227.200 109.062,227.200 109.382 C 227.200 109.730,226.638 110.069,225.800 110.226 C 224.998 110.377,224.400 110.726,224.400 111.045 C 224.400 111.350,224.139 111.600,223.821 111.600 C 223.116 111.600,221.200 109.885,221.200 109.254 C 221.200 109.004,220.840 108.800,220.400 108.800 C 219.867 108.800,219.600 108.533,219.600 108.000 C 219.600 107.467,219.333 107.200,218.800 107.200 C 218.267 107.200,218.000 106.933,218.000 106.400 C 218.000 105.867,217.733 105.600,217.200 105.600 C 216.667 105.600,216.400 105.333,216.400 104.800 C 216.400 104.267,216.133 104.000,215.600 104.000 C 215.067 104.000,214.800 103.733,214.800 103.200 C 214.800 102.683,214.533 102.400,214.047 102.400 C 213.630 102.400,213.200 102.043,213.084 101.600 C 212.924 100.987,212.538 100.800,211.437 100.800 C 210.267 100.800,210.000 100.652,210.000 100.000 C 210.000 99.467,209.733 99.200,209.200 99.200 C 208.667 99.200,208.400 98.933,208.400 98.400 C 208.400 97.752,208.133 97.600,207.000 97.600 C 206.009 97.600,205.600 97.421,205.600 96.987 C 205.600 96.651,205.299 96.259,204.931 96.118 C 204.562 95.977,203.932 95.532,203.531 95.131 C 203.129 94.729,202.350 94.400,201.800 94.400 C 201.205 94.400,200.800 94.171,200.800 93.835 C 200.800 93.488,200.184 93.166,199.200 93.000 C 198.216 92.834,197.600 92.512,197.600 92.165 C 197.600 91.741,197.000 91.600,195.200 91.600 C 193.067 91.600,192.800 91.511,192.800 90.800 C 192.800 90.099,192.533 90.000,190.647 90.000 C 188.830 90.000,188.461 89.875,188.284 89.200 C 188.107 88.523,187.738 88.400,185.884 88.400 C 184.030 88.400,183.661 88.277,183.484 87.600 C 183.293 86.870,182.938 86.800,179.437 86.800 C 175.867 86.800,175.600 86.744,175.600 86.000 C 175.600 85.211,175.333 85.200,155.400 85.200 C 135.467 85.200,135.200 85.211,135.200 86.000 " stroke="none" fill="#04acfc" fill-rule="evenodd"></path><path id="path1" d="" stroke="none" fill="#08acfc" fill-rule="evenodd"></path><path id="path2" d="" stroke="none" fill="#08acfc" fill-rule="evenodd"></path><path id="path3" d="" stroke="none" fill="#08acfc" fill-rule="evenodd"></path><path id="path4" d="" stroke="none" fill="#08acfc" fill-rule="evenodd"></path></g></svg>